Coordinates
version=1
nRows=19
nColumns=24
inDegrees=yes

Units are S.I. units (second, meters, Newtons, ...)
Angles are in degrees.

endheader
time	pelvis_tilt	pelvis_list	pelvis_rotation	pelvis_tx	pelvis_ty	pelvis_tz	hip_flexion_r	hip_adduction_r	hip_rotation_r	knee_angle_r	ankle_angle_r	subtalar_angle_r	mtp_angle_r	hip_flexion_l	hip_adduction_l	hip_rotation_l	knee_angle_l	ankle_angle_l	subtalar_angle_l	mtp_angle_l	lumbar_extension	lumbar_bending	lumbar_rotation
      0.47100000	     -4.33170970	      5.73434037	      0.60408355	     -0.86236107	      0.99366828	      0.28578914	     27.47535536	     -5.02044181	     -6.05426481	     -0.79927781	     -1.12953054	     -7.02405345	     -0.66299364	     -6.08452795	      7.38195215	     -8.86559377	     -8.80895024	      9.92380502	     -8.56593574	     -0.31685509	     -9.56693039	     -6.71939173	      0.03525801
      0.47516667	     -4.08469315	      5.63974220	      0.60266752	     -0.85634582	      0.99339219	      0.28600892	     27.24724260	     -4.91645812	     -6.05981281	     -1.10729591	     -1.24850829	     -7.01778729	     -0.85855040	     -6.48389794	      7.20695616	     -8.83277600	     -9.30896559	     10.09421297	     -8.43732760	     -0.42747656	     -9.83273052	     -6.53770279	      0.02992553
      0.47933333	     -3.98576741	      5.60592865	      0.56527704	     -0.85038826	      0.99286048	      0.28627357	     27.24657068	     -4.85486846	     -6.00643668	     -1.58192180	     -1.38822328	     -7.06382076	     -0.88115768	     -6.69371828	      7.10996395	     -8.78171317	     -9.85900877	     10.18973442	     -8.49764563	     -0.43876918	     -9.91139302	     -6.43494537	      0.03211116
      0.48350000	     -3.56597587	      5.41996461	      0.55608864	     -0.84429132	      0.99297634	      0.28655817	     26.79228050	     -4.65169882	     -6.00727119	     -1.94249564	     -1.65502466	     -7.30213919	     -0.98958814	     -7.24293878	      6.81641403	     -8.80560868	    -10.42933916	     10.35604066	     -8.20871763	     -0.49291325	    -10.37782655	     -6.13109655	      0.00639335
      0.48766667	     -3.31047923	      5.28809209	      0.53532925	     -0.83821198	      0.99283675	      0.28682277	     26.56874595	     -4.50041267	     -5.98840330	     -2.44443473	     -1.92254022	     -7.49668101	     -1.05771113	     -7.58410685	      6.59393284	     -8.78525887	    -11.05956803	     10.45141052	     -8.12822606	     -0.52178059	    -10.64187393	     -5.89963571	      0.00167016
      0.49183333	     -3.03334133	      5.14979991	      0.49470471	     -0.83210240	      0.99275004	      0.28712886	     26.33440029	     -4.33456049	     -5.97084627	     -3.01412635	     -2.21694188	     -7.73665015	     -1.08824489	     -7.92991219	      6.36343417	     -8.78472002	    -11.72892488	     10.53695590	     -8.04376878	     -0.52297157	    -10.92754421	     -5.67170239	      0.00299404
      0.49600000	     -2.74198326	      4.98198786	      0.45563774	     -0.82594490	      0.99275681	      0.28746606	     26.05307900	     -4.13594326	     -5.92666037	     -3.56249869	     -2.57802441	     -8.01712717	     -1.09391054	     -8.25494288	      6.09004422	     -8.84608367	    -12.46349845	     10.54206256	     -7.93857443	     -0.49623456	    -11.22322377	     -5.38980118	      0.00625700
      0.50016667	     -2.45673440	      4.82381772	      0.41462533	     -0.81978512	      0.99278106	      0.28778853	     25.79832604	     -3.94951297	     -5.90228267	     -4.18326284	     -2.96064157	     -8.34981831	     -1.07516288	     -8.55189839	      5.83176624	     -8.86643424	    -13.24031212	     10.52648369	     -7.89630546	     -0.44367832	    -11.51137112	     -5.13269017	      0.02638074
      0.50433333	     -2.17060493	      4.64138726	      0.36131424	     -0.81357406	      0.99286427	      0.28815634	     25.51976837	     -3.73038068	     -5.84754541	     -4.78604125	     -3.38232043	     -8.69735179	     -1.02926364	     -8.81486268	      5.53924682	     -8.94584953	    -14.08333188	     10.45489843	     -7.83043250	     -0.35305206	    -11.79903111	     -4.84552846	      0.04154416
      0.50850000	     -1.90071290	      4.48103804	      0.29298207	     -0.80738367	      0.99294370	      0.28854671	     25.28012957	     -3.52918488	     -5.78869558	     -5.44566542	     -3.82032982	     -9.08928635	     -0.97052383	     -9.03095331	      5.27354666	     -9.03464034	    -14.97493710	     10.34750788	     -7.81665214	     -0.24018815	    -12.06420459	     -4.57878417	      0.08551492
      0.51266667	     -1.63794573	      4.30833408	      0.21432862	     -0.80117966	      0.99305843	      0.28898675	     25.03557549	     -3.30814784	     -5.69670182	     -6.09768044	     -4.28042371	     -9.50521543	     -0.89350787	     -9.20303783	      4.98907595	     -9.14183871	    -15.93725866	     10.18176707	     -7.80395642	     -0.09044053	    -12.32166972	     -4.31266692	      0.13669933
      0.51683333	     -1.29084204	      4.10672834	      0.05463315	     -0.79492926	      0.99332222	      0.28962558	     24.69107546	     -3.02034004	     -5.53052297	     -6.73458954	     -4.74121411	     -9.90298306	     -0.72650851	     -9.44025003	      4.66637571	     -9.40702116	    -16.94796207	      9.98191244	     -7.73740376	      0.25326386	    -12.67408652	     -4.02925768	      0.24330677
      0.52100000	     -1.13282459	      3.96589038	      0.01243417	     -0.78875829	      0.99336422	      0.28994978	     24.57099814	     -2.85671812	     -5.47979269	     -7.44716473	     -5.16978659	    -10.30206566	     -0.67183218	     -9.41298028	      4.41980356	     -9.43540019	    -18.06141771	      9.70274413	     -7.92230939	      0.38668279	    -12.81635814	     -3.78757274	      0.32116964
      0.52516667	     -0.83568693	      3.76904653	     -0.18944525	     -0.78248911	      0.99362451	      0.29072766	     24.28155261	     -2.54960283	     -5.25401425	     -8.10194743	     -5.66808725	    -10.83411910	     -0.46945845	     -9.51917708	      4.08916724	     -9.78854085	    -19.20712517	      9.37901025	     -7.82305913	      0.91125100	    -13.10094813	     -3.52211790	      0.44608423
      0.52933333	     -0.58040135	      3.58625069	     -0.38587857	     -0.77629634	      0.99384717	      0.29153431	     24.03285027	     -2.25452611	     -4.97646971	     -8.75433439	     -6.10974096	    -11.36910813	     -0.11618029	     -9.52453337	      3.76802829	    -10.11925057	    -20.45164577	      8.99730164	     -7.86691711	      1.99135191	    -13.34982944	     -3.29071986	      0.65696247
      0.53350000	     -0.45347636	      3.43466406	     -0.44154806	     -0.77007025	      0.99398516	      0.29182633	     23.92569666	     -2.09163955	     -4.95561643	     -9.47114143	     -6.42080796	    -11.58289439	     -0.08361209	     -9.34408262	      3.50254974	    -10.19092894	    -21.75424883	      8.44053876	     -8.21371327	      2.11929430	    -13.44364815	     -3.02034021	      0.74256008
      0.53766667	     -0.23533330	      3.25224487	     -0.69533094	     -0.76390396	      0.99419819	      0.29285195	     23.71605292	     -1.76231116	     -4.59639454	    -10.12789881	     -6.83536597	    -12.20174508	      0.14805199	     -9.22172714	      3.15391803	    -10.64106155	    -23.15220414	      7.95958330	     -8.18609377	      3.18242863	    -13.64888355	     -2.82208067	      0.98385901
      0.54183333	     -0.10115896	      3.11128243	     -0.76883257	     -0.75774206	      0.99443447	      0.29321913	     23.57806439	     -1.60318180	     -4.54253450	    -10.79630731	     -7.18679121	    -12.40236078	      0.19598361	     -8.95228401	      2.88367314	    -10.74933197	    -24.59864814	      7.23738805	     -8.64001795	      3.48616575	    -13.76010354	     -2.59412579	      1.11669943
      0.54600000	     -0.01165975	      2.94702363	     -0.99155723	     -0.75154652	      0.99452431	      0.29407202	     23.51406150	     -1.33153297	     -4.29423695	    -11.51046663	     -7.40208521	    -12.71275645	      1.19828312	     -8.60476271	      2.54908098	    -11.14121817	    -26.11624064	      6.49287703	     -8.93268623	     11.85783596	    -13.80968893	     -2.37866872	      1.32539876
